<?xml version="1.0" encoding="utf-8"?>
<!-- Generator: Adobe Illustrator 19.1.0, SVG Export Plug-In . SVG Version: 6.00 Build 0)  -->
<svg version="1.1" id="Layer_1" xmlns="http://www.w3.org/2000/svg" xmlns:xlink="http://www.w3.org/1999/xlink" x="0px" y="0px"
	 viewBox="0 0 640 190.1" style="enable-background:new 0 0 640 190.1;" xml:space="preserve">
<style type="text/css">
	.st0{fill:#FFFFFF;}
	.st1{fill:#D0D1D4;}
	.st2{fill:#CDCED1;}
	.st3{fill:#8C8E91;}
	.st4{fill:#B2B5B7;}
	.st5{fill:#B9BABC;}
	.st6{fill:#143356;}
	.st7{opacity:0.74;fill:url(#SVGID_1_);}
	.st8{fill:url(#SVGID_2_);}
	.st9{fill:#616B5F;}
	.st10{fill:#F8F8F9;}
	.st11{fill:#DCDDDF;}
	.st12{fill:#E4E5E7;}
	.st13{fill:#D8D9DB;}
	.st14{fill:#F3F4F4;}
	.st15{fill:#E8E9EB;}
	.st16{fill:url(#SVGID_3_);}
	.st17{fill:url(#SVGID_4_);}
</style>
<g>
	<rect x="0" class="st0" width="638.8" height="190.1"/>
	<rect x="0" class="st0" width="638.8" height="190.1"/>
	<g>
		<g>
			<polygon class="st1" points="638.7,0 638.6,190.1 546.2,0 			"/>
			<polygon class="st2" points="353.6,190.1 581.7,72.9 638.7,190.1 			"/>
			<polygon class="st1" points="68.4,190.1 296.5,72.9 353.5,190.1 			"/>
			<polygon class="st3" points="118.5,0 182.5,131.5 68.4,190.1 68.4,0 			"/>
			<polygon class="st4" points="202,0 296.5,72.9 182.4,131.4 118.5,0 			"/>
			<polygon class="st2" points="261,0 296.5,72.8 202,0 			"/>
			<polygon class="st4" points="349.7,0 296.5,72.9 261.1,0 			"/>
			<polygon class="st1" points="438.4,0 296.6,72.9 349.8,0 			"/>
			<polygon class="st2" points="492.3,0 353.5,190 296.5,72.8 438.4,0 			"/>
			<polygon class="st5" points="546.2,0 581.7,72.8 353.5,190 492.2,0 			"/>
			<rect x="68.4" class="st6" width="570.4" height="190.1"/>
			
				<linearGradient id="SVGID_1_" gradientUnits="userSpaceOnUse" x1="474.9336" y1="504.0222" x2="454.3387" y2="-85.7384" gradientTransform="matrix(0 -1 -1 0 556 559.4648)">
				<stop  offset="0" style="stop-color:#F0D1CE"/>
				<stop  offset="0.6956" style="stop-color:#5C4233"/>
			</linearGradient>
			<rect x="68.4" class="st7" width="570.4" height="190.1"/>
			
				<linearGradient id="SVGID_2_" gradientUnits="userSpaceOnUse" x1="147.5337" y1="202.2781" x2="758.483" y2="733.3682" gradientTransform="matrix(1 0 0 -1 -3.4648 479.4648)">
				<stop  offset="1.212120e-02" style="stop-color:#FFFFFF"/>
				<stop  offset="0.1283" style="stop-color:#D7DDE0"/>
				<stop  offset="0.2928" style="stop-color:#A6B1B9"/>
				<stop  offset="0.4482" style="stop-color:#7E8F9B"/>
				<stop  offset="0.5902" style="stop-color:#627785"/>
				<stop  offset="0.714" style="stop-color:#516878"/>
				<stop  offset="0.8061" style="stop-color:#4B6373"/>
			</linearGradient>
			<rect x="68.4" class="st8" width="570.4" height="190.1"/>
			<rect x="68.4" class="st9" width="570.4" height="190.1"/>
			<polygon class="st1" points="68.4,190 296.6,72.9 353.5,190.1 			"/>
			<polygon class="st2" points="353.6,190 581.8,72.9 638.8,190.1 			"/>
			<polygon class="st10" points="492.5,0 353.5,190.1 296.6,72.9 438.7,0 			"/>
			<polygon class="st3" points="638.8,0 638.8,190.1 546.2,0 			"/>
			<polygon class="st1" points="546.2,0 581.7,73 353.6,190.1 492.4,0 			"/>
			<polygon class="st3" points="438.7,0 410.6,14.4 403.6,0 			"/>
			<polygon class="st11" points="392.1,0 410.6,14.2 296.5,72.8 261.1,0 			"/>
			<polygon class="st2" points="261.1,0 296.6,72.9 202,0 			"/>
			<polygon class="st5" points="202.1,0 296.6,72.9 182.6,131.5 118.6,0 			"/>
			<polygon class="st12" points="638.8,0 638.8,43.6 617.5,0 			"/>
			<polygon class="st13" points="638.8,190.1 581.7,72.9 638.8,43.7 			"/>
			<polygon class="st10" points="467.5,131.5 410.6,14.3 353.5,43.6 			"/>
			<polygon class="st12" points="353.5,190.1 467.6,131.5 496.1,190.1 			"/>
			<polygon class="st14" points="496.2,190.1 610.2,131.5 638.8,190.1 			"/>
			<polygon class="st1" points="353.5,43.6 410.5,160.8 467.6,131.5 			"/>
			<polygon class="st14" points="617.5,0 638.7,43.7 582.1,0 			"/>
			<polygon class="st15" points="582.1,0 638.8,43.7 581.7,73 546.2,0 			"/>
			<polygon class="st14" points="546.2,0 553.2,14.4 439.1,72.9 492.3,0 			"/>
			<polygon class="st1" points="492.4,0 439.1,72.9 410.6,14.3 438.5,0 			"/>
			<polygon class="st1" points="467.5,131.5 581.6,72.9 553.2,14.3 			"/>
			<polygon class="st12" points="553.1,14.3 439,72.9 467.5,131.5 			"/>
			<polygon class="st12" points="496.1,190.1 610.2,131.6 581.7,72.9 			"/>
			<polygon class="st11" points="581.7,73 467.6,131.5 496.1,190.1 			"/>
			<polygon class="st15" points="438.5,0 410.6,14.3 421.1,0 			"/>
			<polygon class="st13" points="421.1,0 410.6,14.4 403.6,0 			"/>
			<polygon class="st1" points="118.5,0 125.4,14.3 68.4,43.6 68.4,0 			"/>
			<polygon class="st12" points="403.6,0 410.6,14.3 353.6,43.5 353.6,43.6 353.6,43.6 353.5,43.6 353.5,43.4 332.4,0 			"/>
			<polygon class="st13" points="353.6,43.7 353.6,43.7 353.6,43.7 410.6,160.9 353.6,190.1 353.6,190.1 353.6,190.1 353.5,190.1 
				353.5,189.9 296.6,72.9 353.6,43.7 353.6,43.7 			"/>
			<polygon class="st15" points="68.5,43.7 125.4,160.9 68.4,190.1 			"/>
			<polygon class="st10" points="182.4,131.5 125.4,14.3 68.4,43.6 			"/>
			<polygon class="st12" points="68.4,190.1 182.5,131.5 211,190.1 			"/>
			<polygon class="st14" points="211,190.1 325.1,131.5 353.6,190.1 			"/>
			<polygon class="st1" points="68.4,43.6 125.4,160.8 182.5,131.5 			"/>
			<polygon class="st14" points="332.4,0 353.6,43.7 296.9,0 			"/>
			<polygon class="st15" points="297,0 353.6,43.7 296.6,73 261.1,0 			"/>
			<polygon class="st14" points="261.1,0 268.1,14.4 153.9,72.9 207.2,0 			"/>
			<polygon class="st1" points="207.2,0 154,72.9 125.5,14.3 153.4,0 			"/>
			<polygon class="st1" points="182.4,131.5 296.5,72.9 268,14.3 			"/>
			<polygon class="st12" points="268,14.3 153.9,72.9 182.4,131.5 			"/>
			<polygon class="st12" points="211,190.1 325.1,131.6 296.6,72.9 			"/>
			<polygon class="st11" points="296.6,73 182.5,131.5 211,190.1 			"/>
			<polygon class="st15" points="153.4,0 125.4,14.3 135.9,0 			"/>
			<polygon class="st13" points="136,0 125.5,14.4 118.5,0 			"/>
		</g>
	</g>
	<linearGradient id="SVGID_3_" gradientUnits="userSpaceOnUse" x1="82.9136" y1="221.2755" x2="624.2395" y2="-31.1489">
		<stop  offset="0.1667" style="stop-color:#F2F2F2"/>
		<stop  offset="0.2345" style="stop-color:#CDCDCD"/>
		<stop  offset="0.3568" style="stop-color:#8F8F8F"/>
		<stop  offset="0.4743" style="stop-color:#5C5C5C"/>
		<stop  offset="0.5837" style="stop-color:#343434"/>
		<stop  offset="0.6833" style="stop-color:#181818"/>
		<stop  offset="0.7698" style="stop-color:#060606"/>
		<stop  offset="0.8333" style="stop-color:#000000"/>
	</linearGradient>
	<rect x="68.4" class="st16" width="570.4" height="190.1"/>
	<linearGradient id="SVGID_4_" gradientUnits="userSpaceOnUse" x1="78.7269" y1="222.1559" x2="623.8289" y2="-32.0293">
		<stop  offset="0.1667" style="stop-color:#F2F2F2"/>
		<stop  offset="0.2345" style="stop-color:#CDCDCD"/>
		<stop  offset="0.3568" style="stop-color:#8F8F8F"/>
		<stop  offset="0.4743" style="stop-color:#5C5C5C"/>
		<stop  offset="0.5837" style="stop-color:#343434"/>
		<stop  offset="0.6833" style="stop-color:#181818"/>
		<stop  offset="0.7698" style="stop-color:#060606"/>
		<stop  offset="0.8333" style="stop-color:#000000"/>
	</linearGradient>
	<rect x="63.8" class="st17" width="575" height="190.1"/>
</g>
</svg>
